<?xml version="1.0" encoding="utf-8"?>
<!-- Generator: Adobe Illustrator 21.1.0, SVG Export Plug-In . SVG Version: 6.00 Build 0)  -->
<svg version="1.1" id="Layer_1" xmlns="http://www.w3.org/2000/svg" xmlns:xlink="http://www.w3.org/1999/xlink" x="0px" y="0px"
	 viewBox="0 0 453 453" style="enable-background:new 0 0 453 453;" xml:space="preserve">
<style type="text/css">
	.st0{fill:none;stroke:url(#SVGID_1_);stroke-width:9.7991;stroke-miterlimit:10;}
</style>
<title>Asset 3</title>
<g id="Layer_2">
	<g id="Layer_1-2">
		<linearGradient id="SVGID_1_" gradientUnits="userSpaceOnUse" x1="2.1004" y1="226.5" x2="450.8996" y2="226.5">
			<stop  offset="0" style="stop-color:#00F260"/>
			<stop  offset="1" style="stop-color:#0575E6"/>
		</linearGradient>
		<circle class="st0" cx="226.5" cy="226.5" r="219.5"/>
		<g id="laptop.psd">
			<g id="Forma_1">
				<path d="M376.1,302.3c-0.3-0.4-0.7-0.6-1.2-0.6H73.2c-0.5,0-0.9,0.2-1.2,0.6c-0.3,0.4-0.4,0.8-0.4,1.3c0,0.3,4.6,29.6,39.9,29.6
					h225c35.3,0,39.9-29.3,39.9-29.6C376.6,303.1,376.4,302.6,376.1,302.3z M247.4,320.6h-44v-9.4h44V320.6z M106,289.1h238.9
					c3.5,0,6.3-2.8,6.3-6.3c0,0,0,0,0,0V135.1c0-3.5-2.8-6.3-6.3-6.3H105.9c-3.5,0-6.3,2.8-6.3,6.3v147.8
					C99.7,286.3,102.5,289.2,106,289.1C106,289.2,106,289.2,106,289.1z M121.7,150.8h207.4v116.3H121.7L121.7,150.8z"/>
			</g>
		</g>
	</g>
</g>
</svg>
