<svg xmlns="http://www.w3.org/2000/svg" viewBox="0 0 239.69 215.95">
  <defs>
    <style>
      .cls-1 {
        fill: #fff;
      }
    </style>
  </defs>
  <title>Asset 7</title>
  <g id="Layer_2" data-name="Layer 2">
    <g id="background">
      <g>
        <path class="cls-1" d="M106,75.9h9.72c26,0,52-.63,78,.39a57.8,57.8,0,0,1,26.37,7.89c12.49,7.32,19.73,21,19.62,39.18s-7.56,32.15-20.15,38.71c-9.85,5.13-21.18,6.37-32,7.62-6.42.74-11.2,2.43-16.06,8.45-28.05,34.76-61.58,46.13-98.88,31.69s-59.87-48-68.45-96.59C2.77,105.25,2,97.07.54,89.11c-1.85-9.92,1-13.42,8.83-13.3,24.16.35,48.33.13,72.5.13h24.44M81.83,186.79C66.44,163.19,66.94,163,58.63,131A135,135,0,0,0,44.55,97.42c-6.2-10.6-13-8.37-17.13,4a49.3,49.3,0,0,0-2.24,10.08C21.14,147,52.53,189.41,81.83,186.79Zm87.45-95.92c-3.26,25.88-17.59,39.72-29.93,55.75A105.06,105.06,0,0,0,124.43,174c-4.13,11.25-.55,16.09,8.57,12.65,23.12-8.72,38.51-28,44.62-57.86C180.29,115.7,179.11,102.67,169.29,90.87ZM60,89.84c4.45,17.78,8.27,35.78,13.55,53,3.11,10.2,7.38,20.66,13.21,28.47,7.35,9.84,12.73,6.67,14.87-6.65C106.35,135.09,83.22,94.41,60,89.84Zm128.42,65.47c13.62,1.56,26.4-.84,35.71-16a30.35,30.35,0,0,0,2-28.54c-4.92-11.69-12.9-17.76-22.69-19.14Zm-72.68-2.07c9.45-11.34,18.94-22.21,27.92-33.71a108.84,108.84,0,0,0,11.79-19.09c1.58-3.22,1.13-8.05,1.6-12.15-3.16-.42-6.49-1.88-9.46-1.1-15,4-26.57,15.08-35.58,30.52a16.45,16.45,0,0,0-1.58,9.54C111.77,136,113.87,144.45,115.72,153.25Z"/>
        <path class="cls-1" d="M97.43,1c-3.85,6.38-8,12.52-10.9,18.92a32.8,32.8,0,0,0-1.77,4.76A11.39,11.39,0,0,0,84.32,29a4,4,0,0,0,1.55,2.74,12,12,0,0,0,4,1.69,34.2,34.2,0,0,1,5.72,2,10.49,10.49,0,0,1,3.08,2.37,8.44,8.44,0,0,1,1.81,3.73,12,12,0,0,1-1,7,26.64,26.64,0,0,1-3,5.23,56,56,0,0,1-7.72,8.39A79.43,79.43,0,0,1,79.91,69c2.2-3,4.51-5.9,6.64-8.87a87.65,87.65,0,0,0,5.93-9,26.83,26.83,0,0,0,2.06-4.55,7.15,7.15,0,0,0,.36-3.85,3.14,3.14,0,0,0-2-2,32.37,32.37,0,0,0-4.74-1.51,17,17,0,0,1-6-2.85,9.68,9.68,0,0,1-3.48-6.75,15.64,15.64,0,0,1,1-6.54,30.81,30.81,0,0,1,2.64-5.35,59.16,59.16,0,0,1,6.92-9A80.62,80.62,0,0,1,97.43,1Z"/>
        <path class="cls-1" d="M125.61,0c-3.85,6.38-8,12.52-10.9,18.92a32.82,32.82,0,0,0-1.77,4.76,11.39,11.39,0,0,0-.43,4.33,4,4,0,0,0,1.55,2.74,12,12,0,0,0,4,1.69,34.2,34.2,0,0,1,5.72,2,10.49,10.49,0,0,1,3.08,2.37,8.44,8.44,0,0,1,1.81,3.73,12,12,0,0,1-1,7,26.64,26.64,0,0,1-3,5.23,56,56,0,0,1-7.72,8.39A79.43,79.43,0,0,1,108.1,68c2.2-3,4.51-5.9,6.64-8.87a87.65,87.65,0,0,0,5.93-9,26.83,26.83,0,0,0,2.06-4.55,7.15,7.15,0,0,0,.36-3.85,3.14,3.14,0,0,0-2-2,32.36,32.36,0,0,0-4.74-1.51,17,17,0,0,1-6-2.85,9.68,9.68,0,0,1-3.48-6.75,15.64,15.64,0,0,1,1-6.54,30.82,30.82,0,0,1,2.64-5.35,59.17,59.17,0,0,1,6.92-9A80.63,80.63,0,0,1,125.61,0Z"/>
      </g>
    </g>
  </g>
</svg>
