<?xml version="1.0" encoding="utf-8"?>
<!-- Generator: Adobe Illustrator 21.1.0, SVG Export Plug-In . SVG Version: 6.00 Build 0)  -->
<svg version="1.1" id="Layer_1" xmlns="http://www.w3.org/2000/svg" xmlns:xlink="http://www.w3.org/1999/xlink" x="0px" y="0px"
	 viewBox="0 0 318.7 162.7" style="enable-background:new 0 0 318.7 162.7;" xml:space="preserve">
<style type="text/css">
	.st0{fill:#FFFFFF;stroke:#FFFFFF;stroke-miterlimit:10;}
	.st1{font-family:'Niconne-Regular';}
	.st2{font-size:98.73px;}
	.st3{fill:none;stroke:#E3E3E3;stroke-width:1.04;stroke-miterlimit:10;}
	.st4{fill:none;stroke:#FFFFFF;stroke-width:3.91;stroke-miterlimit:10;}
	.st5{fill:none;stroke:#FFFFFF;stroke-width:4.17;stroke-miterlimit:10;}
</style>
<title>Asset 1</title>
<g id="Layer_2">
	<g id="Layer_1-2">
		<g>
			<text transform="matrix(1 0 0 1 78.65 134.53)" class="st0 st1 st2">in class</text>
			<path class="st3" d="M165.1,53"/>
			<g>
				<g>
					<path class="st4" d="M165.1,53c0-6.6-36.3-11.9-81.2-11.9C66.4,41,49,41.9,31.7,43.9c12.2-1.1,26.4-1.7,41.6-1.7
						c44.8,0,81.2,5.3,81.2,11.9c0,3.7-11.3,7-29.1,9.1C149.2,61.2,165.1,57.4,165.1,53z"/>
					<g>
						<path class="st5" d="M8.7,57.6c-3-1.1-4.9-2.2-5.7-3.4l-0.5,0.3c1.8,56.4,39.2,99.7,81.2,99.7c1,0,2,0,3-0.1
							C44.2,152.2,10.1,110,8.7,57.6z"/>
						<path class="st0" d="M166.9,53.6c-0.4,4.5-1,8.8-1.8,13.2s-1.6,8.6-2.6,12.9s-2.1,8.5-3.4,12.7c-1.2,4.2-2.8,8.3-4.6,12.3
							c1.5-4.1,2.7-8.3,3.6-12.6c0.9-4.3,1.7-8.6,2.4-12.8s1.2-8.6,1.6-12.9s0.7-8.7,0.7-12.9L166.9,53.6z"/>
						<path class="st5" d="M14.4,59.2c-1.9-0.5-3.8-1-5.7-1.7c1.4,52.4,35.5,94.6,78,96.5c0.9,0,1.9-0.1,2.8-0.2
							C48.8,150.3,16.4,109.7,14.4,59.2z"/>
						<path class="st5" d="M89.5,153.9c0.9-0.1,1.9-0.2,2.8-0.3c-39-5.1-69.8-44.4-72.3-93.2c-2-0.4-4-0.8-5.7-1.2
							C16.4,109.7,48.8,150.3,89.5,153.9z"/>
						<path class="st4" d="M8.6,54.2"/>
						<path class="st4" d="M20.1,60.4C34.9,63.2,58,65,83.9,65c15.2,0,29.4-0.6,41.6-1.7c17.8-2.2,29.1-5.5,29.1-9.2
							c0-6.6-36.3-11.9-81.2-11.9c-15.2,0-29.4,0.6-41.6,1.7C14,46.1-1.1,49.9,2.5,54.4"/>
						<path class="st5" d="M20.1,60.4"/>
						<path class="st5" d="M14.3,54.2"/>
					</g>
				</g>
				<path class="st0" d="M78.5,0.4c-2.1,3.1-4,6.4-5.8,9.7c-0.4,0.8-0.7,1.6-0.9,2.5c-0.2,0.8-0.3,1.6-0.2,2.3
					c0.1,0.6,0.4,1.2,0.8,1.5c0.6,0.4,1.4,0.7,2.1,0.9c1,0.2,2,0.6,2.9,1c0.6,0.3,1.1,0.7,1.6,1.2c0.4,0.5,0.8,1.2,0.9,1.9
					c0.2,1.2,0,2.4-0.5,3.5c-0.4,1-0.9,1.9-1.6,2.7c-2.4,3.1-5.2,5.8-8.4,8c2.4-2.9,4.6-6,6.6-9.2c0.4-0.8,0.8-1.6,1.1-2.4
					c0.3-0.7,0.4-1.4,0.2-2.1c-0.1-0.2-0.2-0.5-0.3-0.7c-0.2-0.2-0.5-0.4-0.7-0.5c-0.8-0.3-1.6-0.6-2.5-0.8
					c-1.1-0.3-2.1-0.8-3.1-1.5c-1-0.8-1.7-2.1-1.8-3.4c-0.1-1.1,0.1-2.3,0.5-3.3c0.4-1,0.8-1.9,1.3-2.8C72.9,5.9,75.5,2.9,78.5,0.4z
					"/>
				<path class="st0" d="M90.9,0c-2.1,3.1-4,6.4-5.8,9.7c-0.4,0.8-0.7,1.6-0.9,2.5C84,13,83.9,13.8,84,14.5c0.1,0.6,0.4,1.2,0.8,1.6
					c0.6,0.4,1.4,0.7,2.1,0.9c1,0.2,2,0.6,2.9,1c0.6,0.3,1.1,0.7,1.6,1.2c0.4,0.5,0.8,1.2,0.9,1.9c0.2,1.2,0,2.4-0.5,3.5
					c-0.4,1-0.9,1.9-1.6,2.7c-2.4,3.1-5.2,5.8-8.4,8c2.4-2.9,4.6-6,6.6-9.2c0.4-0.8,0.8-1.6,1.1-2.4c0.3-0.7,0.3-1.4,0.2-2.1
					c-0.1-0.2-0.2-0.5-0.3-0.7c-0.2-0.2-0.5-0.4-0.7-0.5c-0.8-0.3-1.6-0.6-2.5-0.8c-1.1-0.3-2.1-0.8-3.1-1.5c-1-0.8-1.7-2.1-1.8-3.4
					c-0.1-1.1,0.1-2.3,0.5-3.3c0.4-1,0.8-1.9,1.3-2.8C85.4,5.4,87.9,2.5,90.9,0z"/>
				<path class="st0" d="M157.9,102.4c1.3-0.7,2.5-1.5,3.6-2.5c1.1-0.9,2.2-1.9,3.1-2.9c1.9-2,3.5-4.2,3.9-6.5
					c0-0.3,0.1-0.6,0.1-0.9v-0.9l-0.1-0.9l-0.2-0.9c-0.3-1.2-0.8-2.4-1.4-3.5c-1.5-2.3-3.7-4.2-6.2-5.5c3.2,0,6.3,1.3,8.4,3.8
					c1.1,1.3,2,2.8,2.4,4.4c0.1,0.4,0.2,0.8,0.3,1.2s0.1,0.8,0.1,1.3s0,0.8,0,1.3c0,0.4-0.1,0.9-0.2,1.3c-0.3,1.7-1.1,3.3-2.1,4.6
					c-1,1.3-2.1,2.4-3.4,3.3c-1.2,0.9-2.6,1.7-4,2.3c-0.7,0.3-1.4,0.6-2.2,0.8C159.4,102.3,158.6,102.4,157.9,102.4z"/>
			</g>
		</g>
	</g>
</g>
</svg>
