<?xml version="1.0" encoding="utf-8"?>
<!-- Generator: Adobe Illustrator 21.1.0, SVG Export Plug-In . SVG Version: 6.00 Build 0)  -->
<svg version="1.1" id="Layer_1" xmlns="http://www.w3.org/2000/svg" xmlns:xlink="http://www.w3.org/1999/xlink" x="0px" y="0px"
	 viewBox="0 0 453 453" style="enable-background:new 0 0 453 453;" xml:space="preserve">
<style type="text/css">
	.st0{fill:none;stroke:#17A2B8;stroke-width:4.8838;stroke-miterlimit:10;}
	.st1{fill:none;stroke:url(#SVGID_1_);stroke-width:9.7677;stroke-miterlimit:10;}
</style>
<title>Asset 2</title>
<g id="Layer_2">
	<g id="Layer_1-2">
		<circle class="st0" cx="226.5" cy="226.5" r="218.8"/>
		<g id="smartphone.psd">
			<g id="Forma_1">
				<path d="M283,95.6H173.1c-10.6,0-19.2,8.6-19.2,19.2v223.3c0,10.6,8.6,19.2,19.2,19.2H283c10.6,0,19.2-8.6,19.2-19.2V114.8
					C302.2,104.2,293.6,95.6,283,95.6z M293.5,338.2c0,5.8-4.7,10.5-10.5,10.5H173c-5.8,0-10.5-4.7-10.5-10.5l0,0V305h130.9
					L293.5,338.2z M293.5,296.3H162.6V130.5h130.9V296.3z M293.5,121.8H162.6v-7c0-5.8,4.7-10.5,10.5-10.5H283
					c5.8,0,10.5,4.7,10.5,10.5v0L293.5,121.8z M226.1,345.5c9.6,0,17.5-7.7,17.5-17.4c0-9.6-7.7-17.5-17.4-17.5
					c-9.6,0-17.5,7.7-17.5,17.4c0,0,0,0,0,0.1C208.7,337.6,216.4,345.4,226.1,345.5L226.1,345.5z M226.1,319.3
					c4.8,0,8.7,3.9,8.8,8.7c0,4.8-3.9,8.7-8.7,8.8c-4.8,0-8.7-3.9-8.8-8.7c0,0,0,0,0,0C217.4,323.2,221.2,319.3,226.1,319.3
					L226.1,319.3z M226.1,108.7h-17.4c-2.4,0.1-4.3,2.2-4.2,4.6c0.1,2.2,1.9,4,4.2,4.2H226c2.4-0.1,4.3-2.2,4.2-4.6
					C230.1,110.6,228.3,108.8,226.1,108.7L226.1,108.7z M243.5,108.7h-4.3c-2.4,0.1-4.3,2.2-4.2,4.6c0.1,2.2,1.9,4,4.2,4.2h4.3
					c2.4-0.1,4.3-2.2,4.2-4.6C247.5,110.6,245.7,108.8,243.5,108.7z M341.7,116.7c-1.7-1.7-4.4-1.8-6.2-0.2
					c-1.7,1.7-1.8,4.4-0.2,6.2c0.1,0.1,0.1,0.1,0.2,0.2c16.2,16.4,16.2,42.8,0,59.1c-1.7,1.7-1.7,4.5,0,6.2c1.7,1.7,4.4,1.7,6.1,0
					c0,0,0,0,0,0C361.4,168.4,361.3,136.5,341.7,116.7L341.7,116.7z M323.4,126.6c-1.7-1.7-4.4-1.8-6.2-0.2s-1.8,4.4-0.2,6.2
					c0.1,0.1,0.1,0.1,0.2,0.2c11.1,11.2,11.1,29.3,0,40.5c-1.7,1.7-1.7,4.5,0,6.2c1.7,1.7,4.4,1.7,6.1,0c0,0,0,0,0,0
					C337.9,164.8,337.9,141.3,323.4,126.6L323.4,126.6z M116.6,122.9c1.7-1.7,1.6-4.5-0.2-6.2c-1.7-1.6-4.3-1.6-6,0
					c-19.6,19.8-19.6,51.7,0,71.5c1.7,1.7,4.4,1.7,6.1,0c0,0,0,0,0,0c1.7-1.7,1.7-4.5,0-6.2C100.3,165.6,100.3,139.2,116.6,122.9z
					 M126.5,151.8c0-7.6,3-14.9,8.3-20.2c1.7-1.7,1.7-4.5,0-6.2c-1.7-1.7-4.4-1.7-6.1,0c0,0,0,0,0,0c-14.5,14.6-14.5,38.2,0,52.8
					c1.7,1.7,4.4,1.7,6.1,0c0,0,0,0,0,0c1.7-1.7,1.7-4.5,0-6.2C129.5,166.6,126.5,159.4,126.5,151.8z"/>
			</g>
		</g>
		<linearGradient id="SVGID_1_" gradientUnits="userSpaceOnUse" x1="2.8201" y1="226.5" x2="450.1799" y2="226.5">
			<stop  offset="0" style="stop-color:#00F260"/>
			<stop  offset="1" style="stop-color:#0575E6"/>
		</linearGradient>
		<circle class="st1" cx="226.5" cy="226.5" r="218.8"/>
	</g>
</g>
</svg>
