<?xml version="1.0" encoding="utf-8"?>
<!-- Generator: Adobe Illustrator 21.1.0, SVG Export Plug-In . SVG Version: 6.00 Build 0)  -->
<svg version="1.1" id="Layer_1" xmlns="http://www.w3.org/2000/svg" xmlns:xlink="http://www.w3.org/1999/xlink" x="0px" y="0px"
	 viewBox="0 0 453 453" style="enable-background:new 0 0 453 453;" xml:space="preserve">
<style type="text/css">
	.st0{fill:none;stroke:url(#SVGID_1_);stroke-width:9.7991;stroke-miterlimit:10;}
</style>
<symbol  id="Children" viewBox="-36.2 -19.7 72.4 39.5">
	<g>
		<g>
			<polygon points="-6.4,-12 -12.9,-0.9 -9.5,-1 -3.1,-11.7 			"/>
			<polygon points="7,-12 13.4,-0.9 10.1,-1 3.7,-11.7 			"/>
			<polygon points="-4.3,4.8 -4.3,-11.8 4.9,-11.8 4.9,5.3 4.9,5.3 4.9,19.7 1.6,19.7 1.6,5.2 -1.1,5.2 -1.1,19.7 -4.4,19.7 
				-4.4,4.8 			"/>
			<circle cx="0.4" cy="-15.7" r="4"/>
		</g>
		<g>
			<polygon points="-29.8,-12 -36.2,-0.9 -32.9,-1 -26.4,-11.7 			"/>
			<polygon points="-16.4,-12 -9.9,-1 -13.3,-0.9 -19.7,-11.7 			"/>
			<polygon points="-27.7,4.8 -27.7,-11.8 -18.5,-11.8 -18.5,5.3 -18.5,5.3 -18.5,19.7 -21.7,19.7 -21.7,5.2 -24.4,5.2 -24.4,19.7 
				-27.7,19.7 -27.7,4.8 			"/>
			<circle cx="-22.9" cy="-15.7" r="4"/>
		</g>
		<g>
			<polygon points="16.4,-12 10.4,-1 13.8,-1 19.7,-11.7 			"/>
			<polygon points="29.8,-12 36.2,-0.9 32.9,-1 26.4,-11.7 			"/>
			<polygon points="18.4,4.8 18.4,-11.8 27.7,-11.8 27.7,5.3 27.7,5.3 27.7,19.7 24.4,19.7 24.4,5.2 21.7,5.2 21.7,19.7 18.4,19.7 
				18.4,4.8 			"/>
			<circle cx="23.2" cy="-15.7" r="4"/>
		</g>
	</g>
</symbol>
<title>Asset 2</title>
<g id="Layer_2">
	<g id="Layer_1-2">
		
			<use xlink:href="#Children"  width="72.4" height="39.5" id="Children-3" x="-36.2" y="-19.7" transform="matrix(4.92 0 0 4.88 226.4878 226.3724)" style="overflow:visible;"/>
		<linearGradient id="SVGID_1_" gradientUnits="userSpaceOnUse" x1="2.1004" y1="226.5" x2="450.8996" y2="226.5">
			<stop  offset="0" style="stop-color:#00F260"/>
			<stop  offset="1" style="stop-color:#0575E6"/>
		</linearGradient>
		<circle class="st0" cx="226.5" cy="226.5" r="219.5"/>
	</g>
</g>
</svg>
